<svg width="218" height="132" viewBox="0 0 218 132" fill="none" xmlns="http://www.w3.org/2000/svg">
<path d="M49.2822 50.648C53.6342 50.648 57.1249 52.0987 59.7542 55C62.3835 57.856 63.6982 61.8 63.6982 66.832V89H52.1382V68.396C52.1382 65.8573 51.4809 63.8853 50.1662 62.48C48.8515 61.0747 47.0835 60.372 44.8622 60.372C42.6409 60.372 40.8729 61.0747 39.5582 62.48C38.2435 63.8853 37.5862 65.8573 37.5862 68.396V89H25.9582V38.68H37.5862V56.156C38.7649 54.4787 40.3742 53.1413 42.4142 52.144C44.4542 51.1467 46.7435 50.648 49.2822 50.648ZM69.4665 69.96C69.4665 66.0613 70.1918 62.6387 71.6425 59.692C73.1385 56.7453 75.1558 54.4787 77.6945 52.892C80.2332 51.3053 83.0665 50.512 86.1945 50.512C88.8692 50.512 91.2038 51.056 93.1985 52.144C95.2385 53.232 96.8025 54.66 97.8905 56.428V51.056H109.519V89H97.8905V83.628C96.7572 85.396 95.1705 86.824 93.1305 87.912C91.1358 89 88.8012 89.544 86.1265 89.544C83.0438 89.544 80.2332 88.7507 77.6945 87.164C75.1558 85.532 73.1385 83.2427 71.6425 80.296C70.1918 77.304 69.4665 73.8587 69.4665 69.96ZM97.8905 70.028C97.8905 67.1267 97.0745 64.8373 95.4425 63.16C93.8558 61.4827 91.9065 60.644 89.5945 60.644C87.2825 60.644 85.3105 61.4827 83.6785 63.16C82.0918 64.792 81.2985 67.0587 81.2985 69.96C81.2985 72.8613 82.0918 75.1733 83.6785 76.896C85.3105 78.5733 87.2825 79.412 89.5945 79.412C91.9065 79.412 93.8558 78.5733 95.4425 76.896C97.0745 75.2187 97.8905 72.9293 97.8905 70.028ZM123.779 47.112C121.739 47.112 120.062 46.5227 118.747 45.344C117.478 44.12 116.843 42.624 116.843 40.856C116.843 39.0427 117.478 37.5467 118.747 36.368C120.062 35.144 121.739 34.532 123.779 34.532C125.774 34.532 127.406 35.144 128.675 36.368C129.99 37.5467 130.647 39.0427 130.647 40.856C130.647 42.624 129.99 44.12 128.675 45.344C127.406 46.5227 125.774 47.112 123.779 47.112ZM129.559 51.056V89H117.931V51.056H129.559ZM155.258 89.544C151.54 89.544 148.186 88.7507 145.194 87.164C142.247 85.5773 139.912 83.3107 138.19 80.364C136.512 77.4173 135.674 73.972 135.674 70.028C135.674 66.1293 136.535 62.7067 138.258 59.76C139.98 56.768 142.338 54.4787 145.33 52.892C148.322 51.3053 151.676 50.512 155.394 50.512C159.111 50.512 162.466 51.3053 165.458 52.892C168.45 54.4787 170.807 56.768 172.53 59.76C174.252 62.7067 175.114 66.1293 175.114 70.028C175.114 73.9267 174.23 77.372 172.462 80.364C170.739 83.3107 168.359 85.5773 165.322 87.164C162.33 88.7507 158.975 89.544 155.258 89.544ZM155.258 79.48C157.479 79.48 159.36 78.664 160.902 77.032C162.488 75.4 163.282 73.0653 163.282 70.028C163.282 66.9907 162.511 64.656 160.97 63.024C159.474 61.392 157.615 60.576 155.394 60.576C153.127 60.576 151.246 61.392 149.75 63.024C148.254 64.6107 147.506 66.9453 147.506 70.028C147.506 73.0653 148.231 75.4 149.682 77.032C151.178 78.664 153.036 79.48 155.258 79.48Z" fill="black"/>
<path d="M186.722 89.544C184.682 89.544 183.005 88.9547 181.69 87.776C180.421 86.552 179.786 85.056 179.786 83.288C179.786 81.4747 180.421 79.956 181.69 78.732C183.005 77.508 184.682 76.896 186.722 76.896C188.717 76.896 190.349 77.508 191.618 78.732C192.933 79.956 193.59 81.4747 193.59 83.288C193.59 85.056 192.933 86.552 191.618 87.776C190.349 88.9547 188.717 89.544 186.722 89.544Z" fill="#C5EE4E"/>
<path d="M26.8664 110V98.3636H33.5993V99.3182H27.9289V103.699H33.0709V104.653H27.9289V110H26.8664ZM38.8248 110.159C38.1089 110.159 37.4839 110.021 36.9498 109.744C36.4157 109.464 36.0009 109.083 35.7055 108.602C35.41 108.121 35.2623 107.578 35.2623 106.972C35.2623 106.532 35.3513 106.136 35.5293 105.784C35.7112 105.428 35.9725 105.091 36.3134 104.773C36.6543 104.451 37.0672 104.117 37.5521 103.773L39.2396 102.517C39.6411 102.229 39.946 101.947 40.1543 101.67C40.3665 101.39 40.4725 101.047 40.4725 100.642C40.4725 100.252 40.3248 99.9034 40.0293 99.5966C39.7377 99.286 39.3589 99.1307 38.893 99.1307C38.5672 99.1307 38.2756 99.2121 38.018 99.375C37.7642 99.5379 37.5615 99.75 37.41 100.011C37.2623 100.269 37.1884 100.54 37.1884 100.824C37.1884 101.089 37.2566 101.356 37.393 101.625C37.5293 101.89 37.7131 102.17 37.9441 102.466C38.1752 102.758 38.4328 103.08 38.7168 103.432L44.035 110H42.8078L38.1714 104.312C37.7812 103.835 37.4347 103.409 37.1316 103.034C36.8286 102.655 36.59 102.292 36.4157 101.943C36.2415 101.591 36.1543 101.214 36.1543 100.812C36.1543 100.316 36.2699 99.875 36.5009 99.4886C36.732 99.0985 37.0502 98.7917 37.4555 98.5682C37.8646 98.3447 38.3324 98.233 38.8589 98.233C39.3968 98.233 39.8627 98.3428 40.2566 98.5625C40.6543 98.7822 40.9612 99.0739 41.1771 99.4375C41.3968 99.8011 41.5066 100.203 41.5066 100.642C41.5066 101.169 41.3703 101.634 41.0975 102.04C40.8286 102.445 40.4365 102.843 39.9214 103.233L37.8078 104.812C37.2282 105.248 36.8305 105.652 36.6146 106.023C36.3987 106.394 36.2907 106.71 36.2907 106.972C36.2907 107.381 36.3968 107.758 36.6089 108.102C36.821 108.447 37.1146 108.723 37.4896 108.932C37.8684 109.14 38.3021 109.246 38.7907 109.25C39.2756 109.246 39.732 109.15 40.16 108.96C40.5881 108.767 40.9706 108.492 41.3078 108.136C41.6487 107.78 41.9214 107.354 42.1259 106.858C42.3343 106.362 42.4555 105.809 42.4896 105.199L43.4725 105.21C43.4574 105.835 43.3722 106.366 43.2168 106.801C43.0653 107.233 42.8911 107.589 42.6941 107.869C42.4972 108.15 42.3248 108.375 42.1771 108.545C42.1354 108.602 42.0937 108.659 42.0521 108.716C42.0104 108.773 41.9668 108.83 41.9214 108.886C41.5426 109.303 41.071 109.619 40.5066 109.835C39.946 110.051 39.3854 110.159 38.8248 110.159ZM45.5389 110V98.3636H49.465C50.2226 98.3636 50.8533 98.4962 51.3571 98.7614C51.8647 99.0265 52.2453 99.3883 52.4991 99.8466C52.7529 100.305 52.8798 100.826 52.8798 101.409C52.8798 101.894 52.7984 102.309 52.6355 102.653C52.4726 102.998 52.251 103.277 51.9707 103.489C51.6904 103.701 51.3779 103.854 51.0332 103.949V104.04C51.4082 104.066 51.7718 104.199 52.1241 104.438C52.4764 104.672 52.7662 105.002 52.9934 105.426C53.2207 105.85 53.3343 106.358 53.3343 106.949C53.3343 107.536 53.2037 108.061 52.9423 108.523C52.6809 108.981 52.2794 109.343 51.7378 109.608C51.1999 109.869 50.5143 110 49.6809 110H45.5389ZM46.6014 109.045H49.6809C50.5787 109.045 51.2415 108.847 51.6696 108.449C52.1014 108.051 52.3173 107.551 52.3173 106.949C52.3173 106.506 52.2093 106.104 51.9934 105.744C51.7813 105.381 51.4802 105.093 51.09 104.881C50.7037 104.669 50.2491 104.562 49.7264 104.562H46.6014V109.045ZM46.6014 103.619H49.5616C50.02 103.619 50.4215 103.525 50.7662 103.335C51.1109 103.146 51.3798 102.884 51.573 102.551C51.7662 102.218 51.8628 101.837 51.8628 101.409C51.8628 100.792 51.662 100.29 51.2605 99.9034C50.859 99.5133 50.2605 99.3182 49.465 99.3182H46.6014V103.619ZM60.8208 98.3636V110H59.7583V98.3636H60.8208ZM64.3957 104.545V110H63.3843V101.273H64.3672V102.642H64.4582C64.6627 102.195 64.9809 101.837 65.4127 101.568C65.8483 101.295 66.3862 101.159 67.0263 101.159C67.6135 101.159 68.1286 101.282 68.5718 101.528C69.0188 101.771 69.3654 102.129 69.6116 102.602C69.8616 103.076 69.9866 103.657 69.9866 104.347V110H68.9752V104.409C68.9752 103.693 68.7744 103.127 68.3729 102.71C67.9752 102.294 67.4411 102.085 66.7707 102.085C66.3123 102.085 65.9051 102.184 65.5491 102.381C65.193 102.578 64.9108 102.862 64.7025 103.233C64.4979 103.6 64.3957 104.038 64.3957 104.545ZM75.7674 101.273V102.153H71.6026V101.273H75.7674ZM72.9038 99.1818H73.9208V107.722C73.9208 108.085 73.9833 108.371 74.1083 108.58C74.2333 108.784 74.3962 108.93 74.597 109.017C74.7977 109.1 75.0117 109.142 75.239 109.142C75.3716 109.142 75.4852 109.134 75.5799 109.119C75.6746 109.1 75.7579 109.081 75.8299 109.062L76.0458 109.977C75.9473 110.015 75.8261 110.049 75.6822 110.08C75.5383 110.114 75.3602 110.131 75.1481 110.131C74.7769 110.131 74.4189 110.049 74.0742 109.886C73.7333 109.723 73.453 109.481 73.2333 109.159C73.0136 108.837 72.9038 108.438 72.9038 107.96V99.1818ZM81.1789 110.182C80.3646 110.182 79.66 109.992 79.0653 109.614C78.4706 109.231 78.0104 108.703 77.6846 108.028C77.3627 107.35 77.2017 106.57 77.2017 105.688C77.2017 104.809 77.3627 104.028 77.6846 103.347C78.0104 102.661 78.4593 102.125 79.0312 101.739C79.607 101.348 80.2718 101.153 81.0255 101.153C81.499 101.153 81.9555 101.241 82.3949 101.415C82.8343 101.585 83.2282 101.848 83.5767 102.205C83.9289 102.557 84.2074 103.002 84.4119 103.54C84.6164 104.074 84.7187 104.706 84.7187 105.438V105.938H77.9005V105.045H83.6846C83.6846 104.485 83.571 103.981 83.3437 103.534C83.1202 103.083 82.8077 102.727 82.4062 102.466C82.0085 102.205 81.5483 102.074 81.0255 102.074C80.4725 102.074 79.9858 102.222 79.5653 102.517C79.1449 102.812 78.8153 103.203 78.5767 103.688C78.3418 104.172 78.2225 104.703 78.2187 105.278V105.812C78.2187 106.506 78.338 107.112 78.5767 107.631C78.8191 108.146 79.1619 108.545 79.6051 108.83C80.0483 109.114 80.5729 109.256 81.1789 109.256C81.5918 109.256 81.9536 109.191 82.2642 109.062C82.5786 108.934 82.8418 108.761 83.0539 108.545C83.2699 108.326 83.4327 108.085 83.5426 107.824L84.5028 108.136C84.3702 108.504 84.1524 108.843 83.8494 109.153C83.5502 109.464 83.1752 109.714 82.7244 109.903C82.2774 110.089 81.7623 110.182 81.1789 110.182ZM89.957 113.455C89.3623 113.455 88.8414 113.377 88.3945 113.222C87.9475 113.07 87.5706 112.862 87.2638 112.597C86.957 112.331 86.7183 112.034 86.5479 111.705L87.3774 111.159C87.5024 111.379 87.6691 111.595 87.8774 111.807C88.0895 112.019 88.3642 112.195 88.7013 112.335C89.0422 112.475 89.4607 112.545 89.957 112.545C90.7297 112.545 91.3528 112.352 91.8263 111.966C92.3036 111.58 92.5422 110.979 92.5422 110.165V108.199H92.4513C92.3339 108.464 92.1653 108.729 91.9456 108.994C91.7259 109.256 91.438 109.473 91.082 109.648C90.7297 109.822 90.2922 109.909 89.7695 109.909C89.0725 109.909 88.4532 109.737 87.9115 109.392C87.3736 109.047 86.9494 108.555 86.6388 107.915C86.332 107.271 86.1786 106.504 86.1786 105.614C86.1786 104.731 86.3282 103.955 86.6274 103.284C86.9304 102.614 87.3528 102.091 87.8945 101.716C88.4361 101.341 89.0668 101.153 89.7865 101.153C90.3206 101.153 90.7638 101.248 91.1161 101.438C91.4683 101.623 91.7505 101.854 91.9626 102.131C92.1786 102.407 92.3471 102.676 92.4683 102.938H92.5706V101.273H93.5592V110.227C93.5592 110.966 93.402 111.574 93.0876 112.051C92.7732 112.528 92.3452 112.881 91.8036 113.108C91.2619 113.339 90.6464 113.455 89.957 113.455ZM89.8888 108.983C90.4494 108.983 90.9286 108.848 91.3263 108.58C91.724 108.307 92.0289 107.917 92.2411 107.409C92.4532 106.902 92.5592 106.297 92.5592 105.597C92.5592 104.915 92.4551 104.311 92.2467 103.784C92.0384 103.254 91.7354 102.837 91.3376 102.534C90.9437 102.227 90.4607 102.074 89.8888 102.074C89.3054 102.074 88.813 102.231 88.4115 102.545C88.01 102.86 87.707 103.284 87.5024 103.818C87.2979 104.348 87.1956 104.941 87.1956 105.597C87.1956 106.263 87.2998 106.852 87.5081 107.364C87.7164 107.871 88.0214 108.269 88.4229 108.557C88.8244 108.841 89.313 108.983 89.8888 108.983ZM95.9168 110V101.273H96.8997V102.614H96.9736C97.1479 102.174 97.4509 101.82 97.8827 101.551C98.3183 101.278 98.8107 101.142 99.36 101.142C99.4433 101.142 99.5361 101.144 99.6384 101.148C99.7407 101.152 99.8259 101.155 99.8941 101.159V102.188C99.8486 102.18 99.7691 102.169 99.6554 102.153C99.5418 102.138 99.4187 102.131 99.2861 102.131C98.8316 102.131 98.4263 102.227 98.0702 102.42C97.7179 102.61 97.4395 102.873 97.235 103.21C97.0304 103.547 96.9282 103.932 96.9282 104.364V110H95.9168ZM103.737 110.199C103.211 110.199 102.73 110.097 102.294 109.892C101.859 109.684 101.512 109.384 101.254 108.994C100.997 108.6 100.868 108.123 100.868 107.562C100.868 107.131 100.95 106.767 101.112 106.472C101.275 106.176 101.506 105.934 101.806 105.744C102.105 105.555 102.459 105.405 102.868 105.295C103.277 105.186 103.728 105.1 104.22 105.04C104.709 104.979 105.122 104.926 105.459 104.881C105.8 104.835 106.059 104.763 106.237 104.665C106.415 104.566 106.504 104.407 106.504 104.188V103.983C106.504 103.388 106.326 102.92 105.97 102.58C105.618 102.235 105.111 102.062 104.448 102.062C103.819 102.062 103.306 102.201 102.908 102.477C102.514 102.754 102.237 103.08 102.078 103.455L101.118 103.108C101.315 102.631 101.588 102.25 101.936 101.966C102.285 101.678 102.675 101.472 103.107 101.347C103.539 101.218 103.976 101.153 104.419 101.153C104.753 101.153 105.099 101.197 105.459 101.284C105.823 101.371 106.16 101.523 106.47 101.739C106.781 101.951 107.033 102.248 107.226 102.631C107.419 103.009 107.516 103.491 107.516 104.074V110H106.504V108.619H106.442C106.321 108.877 106.141 109.127 105.902 109.369C105.664 109.612 105.364 109.811 105.004 109.966C104.645 110.121 104.222 110.199 103.737 110.199ZM103.874 109.273C104.412 109.273 104.878 109.153 105.272 108.915C105.665 108.676 105.968 108.36 106.181 107.966C106.397 107.568 106.504 107.131 106.504 106.653V105.392C106.429 105.464 106.302 105.528 106.124 105.585C105.95 105.642 105.747 105.693 105.516 105.739C105.289 105.78 105.061 105.816 104.834 105.847C104.607 105.877 104.402 105.903 104.22 105.926C103.728 105.987 103.307 106.081 102.959 106.21C102.611 106.339 102.343 106.517 102.158 106.744C101.972 106.968 101.879 107.256 101.879 107.608C101.879 108.138 102.069 108.549 102.448 108.841C102.826 109.129 103.302 109.273 103.874 109.273ZM113.324 101.273V102.153H109.159V101.273H113.324ZM110.46 99.1818H111.477V107.722C111.477 108.085 111.54 108.371 111.665 108.58C111.79 108.784 111.952 108.93 112.153 109.017C112.354 109.1 112.568 109.142 112.795 109.142C112.928 109.142 113.041 109.134 113.136 109.119C113.231 109.1 113.314 109.081 113.386 109.062L113.602 109.977C113.504 110.015 113.382 110.049 113.238 110.08C113.095 110.114 112.916 110.131 112.704 110.131C112.333 110.131 111.975 110.049 111.63 109.886C111.29 109.723 111.009 109.481 110.79 109.159C110.57 108.837 110.46 108.438 110.46 107.96V99.1818ZM115.312 110V101.273H116.329V110H115.312ZM115.829 99.7727C115.621 99.7727 115.443 99.7027 115.295 99.5625C115.147 99.4186 115.073 99.2462 115.073 99.0455C115.073 98.8447 115.147 98.6742 115.295 98.5341C115.443 98.3902 115.621 98.3182 115.829 98.3182C116.037 98.3182 116.215 98.3902 116.363 98.5341C116.511 98.6742 116.585 98.8447 116.585 99.0455C116.585 99.2462 116.511 99.4186 116.363 99.5625C116.215 99.7027 116.037 99.7727 115.829 99.7727ZM122.076 110.182C121.322 110.182 120.655 109.991 120.076 109.608C119.5 109.225 119.049 108.697 118.723 108.023C118.398 107.345 118.235 106.562 118.235 105.676C118.235 104.782 118.398 103.996 118.723 103.318C119.049 102.636 119.5 102.106 120.076 101.727C120.655 101.345 121.322 101.153 122.076 101.153C122.829 101.153 123.494 101.345 124.07 101.727C124.646 102.11 125.097 102.64 125.422 103.318C125.752 103.996 125.917 104.782 125.917 105.676C125.917 106.562 125.754 107.345 125.428 108.023C125.102 108.697 124.65 109.225 124.07 109.608C123.494 109.991 122.829 110.182 122.076 110.182ZM122.076 109.256C122.682 109.256 123.195 109.093 123.615 108.767C124.036 108.441 124.354 108.008 124.57 107.466C124.79 106.924 124.9 106.328 124.9 105.676C124.9 105.025 124.79 104.426 124.57 103.881C124.354 103.335 124.036 102.898 123.615 102.568C123.195 102.239 122.682 102.074 122.076 102.074C121.473 102.074 120.96 102.239 120.536 102.568C120.115 102.898 119.795 103.335 119.576 103.881C119.36 104.426 119.252 105.025 119.252 105.676C119.252 106.328 119.36 106.924 119.576 107.466C119.795 108.008 120.115 108.441 120.536 108.767C120.956 109.093 121.47 109.256 122.076 109.256ZM128.828 104.545V110H127.817V101.273H128.8V102.642H128.891C129.095 102.195 129.413 101.837 129.845 101.568C130.281 101.295 130.819 101.159 131.459 101.159C132.046 101.159 132.561 101.282 133.004 101.528C133.451 101.771 133.798 102.129 134.044 102.602C134.294 103.076 134.419 103.657 134.419 104.347V110H133.408V104.409C133.408 103.693 133.207 103.127 132.805 102.71C132.408 102.294 131.874 102.085 131.203 102.085C130.745 102.085 130.338 102.184 129.982 102.381C129.625 102.578 129.343 102.862 129.135 103.233C128.93 103.6 128.828 104.038 128.828 104.545ZM147.471 101.273C147.406 100.625 147.12 100.11 146.613 99.7273C146.105 99.3447 145.467 99.1534 144.698 99.1534C144.156 99.1534 143.679 99.2462 143.266 99.4318C142.857 99.6174 142.535 99.875 142.3 100.205C142.069 100.53 141.954 100.902 141.954 101.318C141.954 101.625 142.02 101.894 142.153 102.125C142.285 102.356 142.463 102.555 142.687 102.722C142.914 102.884 143.164 103.025 143.437 103.142C143.713 103.259 143.992 103.358 144.272 103.438L145.499 103.79C145.87 103.892 146.242 104.023 146.613 104.182C146.984 104.341 147.323 104.542 147.63 104.784C147.941 105.023 148.189 105.316 148.374 105.665C148.564 106.009 148.658 106.424 148.658 106.909C148.658 107.53 148.497 108.089 148.175 108.585C147.853 109.081 147.391 109.475 146.789 109.767C146.187 110.055 145.465 110.199 144.624 110.199C143.833 110.199 143.145 110.068 142.562 109.807C141.978 109.542 141.52 109.176 141.187 108.71C140.853 108.244 140.666 107.705 140.624 107.091H141.715C141.753 107.549 141.905 107.937 142.17 108.256C142.435 108.574 142.78 108.816 143.204 108.983C143.628 109.146 144.102 109.227 144.624 109.227C145.204 109.227 145.719 109.131 146.17 108.938C146.624 108.741 146.98 108.468 147.238 108.119C147.499 107.767 147.63 107.358 147.63 106.892C147.63 106.498 147.528 106.169 147.323 105.903C147.119 105.634 146.833 105.409 146.465 105.227C146.102 105.045 145.679 104.884 145.198 104.744L143.806 104.335C142.893 104.062 142.185 103.686 141.681 103.205C141.177 102.723 140.925 102.11 140.925 101.364C140.925 100.739 141.092 100.189 141.425 99.7159C141.762 99.2386 142.217 98.8674 142.789 98.6023C143.365 98.3333 144.011 98.1989 144.727 98.1989C145.45 98.1989 146.09 98.3314 146.647 98.5966C147.204 98.8617 147.645 99.2273 147.971 99.6932C148.3 100.155 148.477 100.682 148.499 101.273H147.471ZM151.389 113.273C151.189 113.273 151.001 113.254 150.827 113.216C150.653 113.178 150.514 113.136 150.412 113.091L150.685 112.199C151.03 112.305 151.336 112.343 151.605 112.312C151.874 112.286 152.113 112.165 152.321 111.949C152.53 111.737 152.715 111.411 152.878 110.972L153.196 110.085L149.986 101.273H151.083L153.674 108.665H153.753L156.344 101.273H157.441L153.747 111.381C153.592 111.801 153.401 112.152 153.174 112.432C152.946 112.716 152.683 112.926 152.384 113.062C152.088 113.203 151.757 113.273 151.389 113.273ZM164.963 103.188L164.037 103.449C163.946 103.187 163.817 102.951 163.65 102.739C163.484 102.527 163.266 102.358 162.997 102.233C162.732 102.108 162.402 102.045 162.008 102.045C161.417 102.045 160.933 102.186 160.554 102.466C160.175 102.746 159.986 103.108 159.986 103.551C159.986 103.926 160.114 104.231 160.372 104.466C160.633 104.697 161.035 104.881 161.577 105.017L162.895 105.341C163.626 105.519 164.173 105.801 164.537 106.188C164.904 106.574 165.088 107.059 165.088 107.642C165.088 108.134 164.952 108.572 164.679 108.955C164.406 109.337 164.025 109.638 163.537 109.858C163.052 110.074 162.489 110.182 161.849 110.182C160.997 110.182 160.294 109.991 159.741 109.608C159.188 109.222 158.834 108.665 158.679 107.938L159.65 107.699C159.775 108.218 160.02 108.61 160.383 108.875C160.751 109.14 161.234 109.273 161.832 109.273C162.503 109.273 163.039 109.123 163.44 108.824C163.842 108.521 164.042 108.142 164.042 107.688C164.042 107.335 163.925 107.04 163.69 106.801C163.455 106.559 163.099 106.381 162.622 106.267L161.196 105.926C160.438 105.744 159.878 105.456 159.514 105.062C159.15 104.669 158.969 104.18 158.969 103.597C158.969 103.116 159.099 102.693 159.361 102.33C159.622 101.962 159.982 101.674 160.44 101.466C160.899 101.258 161.421 101.153 162.008 101.153C162.808 101.153 163.446 101.335 163.923 101.699C164.404 102.059 164.751 102.555 164.963 103.188ZM170.42 101.273V102.153H166.255V101.273H170.42ZM167.556 99.1818H168.573V107.722C168.573 108.085 168.636 108.371 168.761 108.58C168.886 108.784 169.049 108.93 169.249 109.017C169.45 109.1 169.664 109.142 169.892 109.142C170.024 109.142 170.138 109.134 170.232 109.119C170.327 109.1 170.41 109.081 170.482 109.062L170.698 109.977C170.6 110.015 170.479 110.049 170.335 110.08C170.191 110.114 170.013 110.131 169.801 110.131C169.429 110.131 169.071 110.049 168.727 109.886C168.386 109.723 168.106 109.481 167.886 109.159C167.666 108.837 167.556 108.438 167.556 107.96V99.1818ZM175.831 110.182C175.017 110.182 174.313 109.992 173.718 109.614C173.123 109.231 172.663 108.703 172.337 108.028C172.015 107.35 171.854 106.57 171.854 105.688C171.854 104.809 172.015 104.028 172.337 103.347C172.663 102.661 173.112 102.125 173.684 101.739C174.259 101.348 174.924 101.153 175.678 101.153C176.152 101.153 176.608 101.241 177.047 101.415C177.487 101.585 177.881 101.848 178.229 102.205C178.581 102.557 178.86 103.002 179.064 103.54C179.269 104.074 179.371 104.706 179.371 105.438V105.938H172.553V105.045H178.337C178.337 104.485 178.224 103.981 177.996 103.534C177.773 103.083 177.46 102.727 177.059 102.466C176.661 102.205 176.201 102.074 175.678 102.074C175.125 102.074 174.638 102.222 174.218 102.517C173.797 102.812 173.468 103.203 173.229 103.688C172.994 104.172 172.875 104.703 172.871 105.278V105.812C172.871 106.506 172.991 107.112 173.229 107.631C173.472 108.146 173.814 108.545 174.258 108.83C174.701 109.114 175.225 109.256 175.831 109.256C176.244 109.256 176.606 109.191 176.917 109.062C177.231 108.934 177.494 108.761 177.706 108.545C177.922 108.326 178.085 108.085 178.195 107.824L179.155 108.136C179.023 108.504 178.805 108.843 178.502 109.153C178.203 109.464 177.828 109.714 177.377 109.903C176.93 110.089 176.415 110.182 175.831 110.182ZM181.28 110V101.273H182.263V102.614H182.354C182.528 102.163 182.818 101.809 183.223 101.551C183.632 101.29 184.123 101.159 184.695 101.159C185.297 101.159 185.791 101.301 186.178 101.585C186.568 101.866 186.859 102.252 187.053 102.744H187.127C187.323 102.259 187.644 101.875 188.087 101.591C188.534 101.303 189.075 101.159 189.712 101.159C190.522 101.159 191.162 101.415 191.632 101.926C192.102 102.434 192.337 103.176 192.337 104.153V110H191.325V104.153C191.325 103.464 191.149 102.947 190.797 102.602C190.445 102.258 189.981 102.085 189.405 102.085C188.738 102.085 188.225 102.29 187.865 102.699C187.505 103.108 187.325 103.627 187.325 104.256V110H186.291V104.062C186.291 103.472 186.127 102.994 185.797 102.631C185.467 102.267 185.003 102.085 184.405 102.085C184.003 102.085 183.642 102.184 183.32 102.381C183.002 102.578 182.75 102.852 182.564 103.205C182.382 103.553 182.291 103.955 182.291 104.409V110H181.28Z" fill="black"/>
</svg>
