<svg width="218" height="132" viewBox="0 0 218 132" fill="none" xmlns="http://www.w3.org/2000/svg">
<path d="M49.2822 50.648C53.6342 50.648 57.1249 52.0987 59.7542 55C62.3835 57.856 63.6982 61.8 63.6982 66.832V89H52.1382V68.396C52.1382 65.8573 51.4809 63.8853 50.1662 62.48C48.8515 61.0747 47.0835 60.372 44.8622 60.372C42.6409 60.372 40.8729 61.0747 39.5582 62.48C38.2435 63.8853 37.5862 65.8573 37.5862 68.396V89H25.9582V38.68H37.5862V56.156C38.7649 54.4787 40.3742 53.1413 42.4142 52.144C44.4542 51.1467 46.7435 50.648 49.2822 50.648ZM69.4665 69.96C69.4665 66.0613 70.1918 62.6387 71.6425 59.692C73.1385 56.7453 75.1558 54.4787 77.6945 52.892C80.2332 51.3053 83.0665 50.512 86.1945 50.512C88.8692 50.512 91.2038 51.056 93.1985 52.144C95.2385 53.232 96.8025 54.66 97.8905 56.428V51.056H109.519V89H97.8905V83.628C96.7572 85.396 95.1705 86.824 93.1305 87.912C91.1358 89 88.8012 89.544 86.1265 89.544C83.0438 89.544 80.2332 88.7507 77.6945 87.164C75.1558 85.532 73.1385 83.2427 71.6425 80.296C70.1918 77.304 69.4665 73.8587 69.4665 69.96ZM97.8905 70.028C97.8905 67.1267 97.0745 64.8373 95.4425 63.16C93.8558 61.4827 91.9065 60.644 89.5945 60.644C87.2825 60.644 85.3105 61.4827 83.6785 63.16C82.0918 64.792 81.2985 67.0587 81.2985 69.96C81.2985 72.8613 82.0918 75.1733 83.6785 76.896C85.3105 78.5733 87.2825 79.412 89.5945 79.412C91.9065 79.412 93.8558 78.5733 95.4425 76.896C97.0745 75.2187 97.8905 72.9293 97.8905 70.028ZM123.779 47.112C121.739 47.112 120.062 46.5227 118.747 45.344C117.478 44.12 116.843 42.624 116.843 40.856C116.843 39.0427 117.478 37.5467 118.747 36.368C120.062 35.144 121.739 34.532 123.779 34.532C125.774 34.532 127.406 35.144 128.675 36.368C129.99 37.5467 130.647 39.0427 130.647 40.856C130.647 42.624 129.99 44.12 128.675 45.344C127.406 46.5227 125.774 47.112 123.779 47.112ZM129.559 51.056V89H117.931V51.056H129.559ZM155.258 89.544C151.54 89.544 148.186 88.7507 145.194 87.164C142.247 85.5773 139.912 83.3107 138.19 80.364C136.512 77.4173 135.674 73.972 135.674 70.028C135.674 66.1293 136.535 62.7067 138.258 59.76C139.98 56.768 142.338 54.4787 145.33 52.892C148.322 51.3053 151.676 50.512 155.394 50.512C159.111 50.512 162.466 51.3053 165.458 52.892C168.45 54.4787 170.807 56.768 172.53 59.76C174.252 62.7067 175.114 66.1293 175.114 70.028C175.114 73.9267 174.23 77.372 172.462 80.364C170.739 83.3107 168.359 85.5773 165.322 87.164C162.33 88.7507 158.975 89.544 155.258 89.544ZM155.258 79.48C157.479 79.48 159.36 78.664 160.902 77.032C162.488 75.4 163.282 73.0653 163.282 70.028C163.282 66.9907 162.511 64.656 160.97 63.024C159.474 61.392 157.615 60.576 155.394 60.576C153.127 60.576 151.246 61.392 149.75 63.024C148.254 64.6107 147.506 66.9453 147.506 70.028C147.506 73.0653 148.231 75.4 149.682 77.032C151.178 78.664 153.036 79.48 155.258 79.48Z" fill="black"/>
<path d="M186.722 89.544C184.682 89.544 183.005 88.9547 181.69 87.776C180.421 86.552 179.786 85.056 179.786 83.288C179.786 81.4747 180.421 79.956 181.69 78.732C183.005 77.508 184.682 76.896 186.722 76.896C188.717 76.896 190.349 77.508 191.618 78.732C192.933 79.956 193.59 81.4747 193.59 83.288C193.59 85.056 192.933 86.552 191.618 87.776C190.349 88.9547 188.717 89.544 186.722 89.544Z" fill="#C5EE4E"/>
</svg>
